<svg xmlns="http://www.w3.org/2000/svg" width="640" height="280" viewBox="0 0 640 280">
  <defs>
    <linearGradient id="sprint" x1="0" x2="1" y1="0" y2="1">
      <stop offset="0" stop-color="#272B38"/>
      <stop offset="1" stop-color="#D4B85E"/>
    </linearGradient>
  </defs>
  <rect width="640" height="280" fill="url(#sprint)"/>
  <path d="M0 204h640v76H0Z" fill="#191C25"/>
  <path d="M56 226h528M56 250h528" stroke="#FFFFFF" stroke-width="4" opacity=".26"/>
  <path d="M78 175h210M112 146h150M386 176h160" stroke="#FFFFFF" stroke-width="7" stroke-linecap="round" opacity=".36"/>
  <g stroke="#FFFFFF" stroke-width="9" stroke-linecap="round" stroke-linejoin="round">
    <path d="M340 143l-55 22"/>
    <path d="M365 148l52 14"/>
    <path d="M358 113l-24 37 42 14"/>
    <path d="M287 173l-50 38"/>
    <path d="M418 171l49 34"/>
  </g>
  <circle cx="363" cy="94" r="18" fill="#FFFFFF"/>
  <path d="M318 117c35-22 70-22 105 0" stroke="#C9A227" stroke-width="12" stroke-linecap="round"/>
</svg>
