<svg xmlns="http://www.w3.org/2000/svg" width="640" height="280" viewBox="0 0 640 280">
  <defs>
    <linearGradient id="trail" x1="0" x2="1" y1="0" y2="1">
      <stop offset="0" stop-color="#7AB0A0"/>
      <stop offset="1" stop-color="#D4B85E"/>
    </linearGradient>
  </defs>
  <rect width="640" height="280" fill="url(#trail)"/>
  <path d="M0 176 136 68l96 83 92-105 126 120 72-64 118 93v85H0Z" fill="#2F5D50" opacity=".75"/>
  <path d="M0 216c116-42 226-40 328 8 78 36 178 30 312-18v74H0Z" fill="#253C36"/>
  <path d="M216 280c36-74 86-109 150-105 52 3 92 33 121 105Z" fill="#EFE5CC"/>
  <g stroke="#FFFFFF" stroke-width="8" stroke-linecap="round" stroke-linejoin="round">
    <path d="M316 150l-32 34"/>
    <path d="M340 152l35 28"/>
    <path d="M331 118l-20 36 34 17"/>
    <path d="M285 190l-28 34"/>
    <path d="M377 188l33 33"/>
  </g>
  <circle cx="335" cy="100" r="17" fill="#FFFFFF"/>
  <path d="M300 121c28-18 57-18 86 2" stroke="#C9A227" stroke-width="11" stroke-linecap="round"/>
</svg>
