<svg xmlns="http://www.w3.org/2000/svg" width="640" height="280" viewBox="0 0 640 280">
  <defs>
    <linearGradient id="charity" x1="0" x2="1" y1="0" y2="1">
      <stop offset="0" stop-color="#E5A9B7"/>
      <stop offset="1" stop-color="#F2D57C"/>
    </linearGradient>
  </defs>
  <rect width="640" height="280" fill="url(#charity)"/>
  <path d="M0 186c78-24 155-20 231 11 90 37 188 32 294-16 42-19 80-26 115-21v120H0Z" fill="#FFFFFF" opacity=".74"/>
  <path d="M0 224h640v56H0Z" fill="#60475B"/>
  <path d="M86 220c96-28 190-26 282 5s155 30 207-5" fill="none" stroke="#FFFFFF" stroke-width="5" stroke-linecap="round" opacity=".8"/>
  <path d="M492 86c0-21 34-24 34 1 0-25 34-22 34-1 0 25-34 42-34 42s-34-17-34-42Z" fill="#FFFFFF" opacity=".86"/>
  <g stroke="#FFFFFF" stroke-width="8" stroke-linecap="round" stroke-linejoin="round">
    <path d="M252 150l-35 31"/>
    <path d="M278 152l36 27"/>
    <path d="M268 118l-20 36 34 17"/>
    <path d="M218 188l-29 34"/>
    <path d="M314 187l33 33"/>
  </g>
  <circle cx="272" cy="101" r="17" fill="#FFFFFF"/>
</svg>
